<mxfile host="app.diagrams.net" agent="Mozilla/5.0 (Windows NT 10.0; Win64; x64) AppleWebKit/537.36 (KHTML, like Gecko) Chrome/128.0.0.0 Safari/537.36" version="24.7.12">
  <diagram id="aS9pjdUC0Do7hMSleVWt" name="第 1 页">
    <mxGraphModel dx="1793" dy="983" grid="0" gridSize="10" guides="1" tooltips="1" connect="1" arrows="1" fold="1" page="1" pageScale="1" pageWidth="1654" pageHeight="1169" background="none" math="0" shadow="0">
      <root>
        <mxCell id="0" />
        <mxCell id="1" parent="0" />
        <mxCell id="vP-rkEnZDucWsRm1MtT9-3" value="" style="rounded=1;whiteSpace=wrap;html=1;" parent="1" vertex="1">
          <mxGeometry x="332" y="881" width="813" height="117" as="geometry" />
        </mxCell>
        <mxCell id="vP-rkEnZDucWsRm1MtT9-4" style="edgeStyle=orthogonalEdgeStyle;rounded=0;orthogonalLoop=1;jettySize=auto;html=1;exitX=0.5;exitY=1;exitDx=0;exitDy=0;strokeColor=#007FFF;" parent="1" source="vP-rkEnZDucWsRm1MtT9-2" target="vP-rkEnZDucWsRm1MtT9-3" edge="1">
          <mxGeometry relative="1" as="geometry" />
        </mxCell>
        <mxCell id="vP-rkEnZDucWsRm1MtT9-2" value="" style="rounded=1;whiteSpace=wrap;html=1;" parent="1" vertex="1">
          <mxGeometry x="327" y="389" width="823" height="439" as="geometry" />
        </mxCell>
        <mxCell id="RPVrYkw0YZt2wrHHsJ2X-6" value="192.168.1.101" style="swimlane;whiteSpace=wrap;html=1;fillColor=none;" parent="1" vertex="1">
          <mxGeometry x="287" y="345" width="266" height="713" as="geometry" />
        </mxCell>
        <mxCell id="RPVrYkw0YZt2wrHHsJ2X-10" value="&lt;font style=&quot;font-size: 18px;&quot;&gt;Auth&lt;/font&gt;&lt;br&gt;（登录认证服务）" style="rounded=1;whiteSpace=wrap;html=1;fillColor=#FFFF99;" parent="RPVrYkw0YZt2wrHHsJ2X-6" vertex="1">
          <mxGeometry x="67" y="164" width="120" height="60" as="geometry" />
        </mxCell>
        <mxCell id="RPVrYkw0YZt2wrHHsJ2X-11" value="&lt;span style=&quot;font-size: 18px;&quot;&gt;Exam&lt;/span&gt;&lt;br&gt;（考试服务）" style="rounded=1;whiteSpace=wrap;html=1;fillColor=#FF00FF;" parent="RPVrYkw0YZt2wrHHsJ2X-6" vertex="1">
          <mxGeometry x="67" y="254" width="120" height="60" as="geometry" />
        </mxCell>
        <mxCell id="RPVrYkw0YZt2wrHHsJ2X-9" value="&lt;font style=&quot;font-size: 18px;&quot;&gt;Gateway&lt;/font&gt;&lt;br&gt;（网关）" style="rounded=1;whiteSpace=wrap;html=1;fillColor=#3399FF;" parent="RPVrYkw0YZt2wrHHsJ2X-6" vertex="1">
          <mxGeometry x="67" y="70" width="120" height="60" as="geometry" />
        </mxCell>
        <mxCell id="RPVrYkw0YZt2wrHHsJ2X-8" value="&lt;font style=&quot;font-size: 18px;&quot;&gt;Nacos&lt;/font&gt;&lt;br&gt;（注册&amp;amp;配置中心）" style="rounded=1;whiteSpace=wrap;html=1;fillColor=#B3FF66;" parent="RPVrYkw0YZt2wrHHsJ2X-6" vertex="1">
          <mxGeometry x="71" y="562" width="120" height="60" as="geometry" />
        </mxCell>
        <mxCell id="RPVrYkw0YZt2wrHHsJ2X-13" value="192.168.1.102" style="swimlane;whiteSpace=wrap;html=1;" parent="1" vertex="1">
          <mxGeometry x="597" y="345" width="248" height="711" as="geometry" />
        </mxCell>
        <mxCell id="RPVrYkw0YZt2wrHHsJ2X-15" value="&lt;font style=&quot;font-size: 18px;&quot;&gt;Gateway&lt;/font&gt;&lt;br&gt;（网关）" style="rounded=1;whiteSpace=wrap;html=1;fillColor=#3399FF;" parent="RPVrYkw0YZt2wrHHsJ2X-13" vertex="1">
          <mxGeometry x="67" y="64" width="120" height="60" as="geometry" />
        </mxCell>
        <mxCell id="RPVrYkw0YZt2wrHHsJ2X-16" value="&lt;font style=&quot;font-size: 18px;&quot;&gt;Auth&lt;/font&gt;&lt;br&gt;（登录认证服务）" style="rounded=1;whiteSpace=wrap;html=1;fillColor=#FFFF99;" parent="RPVrYkw0YZt2wrHHsJ2X-13" vertex="1">
          <mxGeometry x="67.5" y="164" width="120" height="60" as="geometry" />
        </mxCell>
        <mxCell id="RPVrYkw0YZt2wrHHsJ2X-17" value="&lt;span style=&quot;font-size: 18px;&quot;&gt;Exam&lt;/span&gt;&lt;br&gt;（考试服务）" style="rounded=1;whiteSpace=wrap;html=1;fillColor=#FF00FF;" parent="RPVrYkw0YZt2wrHHsJ2X-13" vertex="1">
          <mxGeometry x="67.5" y="262" width="120" height="60" as="geometry" />
        </mxCell>
        <mxCell id="RPVrYkw0YZt2wrHHsJ2X-14" value="&lt;font style=&quot;font-size: 18px;&quot;&gt;Nacos&lt;/font&gt;&lt;br&gt;（注册&amp;amp;配置中心）" style="rounded=1;whiteSpace=wrap;html=1;fillColor=#B3FF66;" parent="RPVrYkw0YZt2wrHHsJ2X-13" vertex="1">
          <mxGeometry x="67.5" y="564" width="120" height="60" as="geometry" />
        </mxCell>
        <mxCell id="RPVrYkw0YZt2wrHHsJ2X-12" value="&lt;span style=&quot;font-size: 18px;&quot;&gt;Kc&lt;/span&gt;&lt;br&gt;（课程服务）" style="rounded=1;whiteSpace=wrap;html=1;fillColor=#FF8000;" parent="RPVrYkw0YZt2wrHHsJ2X-13" vertex="1">
          <mxGeometry x="-242" y="357" width="120" height="60" as="geometry" />
        </mxCell>
        <mxCell id="RPVrYkw0YZt2wrHHsJ2X-18" value="&lt;span style=&quot;font-size: 18px;&quot;&gt;Tenant&lt;/span&gt;&lt;br&gt;（租户服务）" style="rounded=1;whiteSpace=wrap;html=1;fillColor=#00FFFF;" parent="RPVrYkw0YZt2wrHHsJ2X-13" vertex="1">
          <mxGeometry x="66" y="364" width="120" height="60" as="geometry" />
        </mxCell>
        <mxCell id="RPVrYkw0YZt2wrHHsJ2X-24" value="&lt;font style=&quot;font-size: 18px;&quot;&gt;Tenant&lt;/font&gt;&lt;br style=&quot;border-color: var(--border-color);&quot;&gt;（租户服务）" style="rounded=1;whiteSpace=wrap;html=1;fillColor=#00FFFF;" parent="RPVrYkw0YZt2wrHHsJ2X-13" vertex="1">
          <mxGeometry x="386" y="363" width="120" height="60" as="geometry" />
        </mxCell>
        <mxCell id="RPVrYkw0YZt2wrHHsJ2X-19" value="192.168.1.103" style="swimlane;whiteSpace=wrap;html=1;" parent="1" vertex="1">
          <mxGeometry x="911" y="347" width="281" height="713" as="geometry" />
        </mxCell>
        <mxCell id="RPVrYkw0YZt2wrHHsJ2X-21" value="&lt;font style=&quot;font-size: 18px;&quot;&gt;Gateway&lt;/font&gt;&lt;br&gt;（网关）" style="rounded=1;whiteSpace=wrap;html=1;fillColor=#3399FF;" parent="RPVrYkw0YZt2wrHHsJ2X-19" vertex="1">
          <mxGeometry x="71" y="65" width="120" height="60" as="geometry" />
        </mxCell>
        <mxCell id="RPVrYkw0YZt2wrHHsJ2X-20" value="&lt;font style=&quot;font-size: 18px;&quot;&gt;Nacos&lt;/font&gt;&lt;br&gt;（注册&amp;amp;配置中心）" style="rounded=1;whiteSpace=wrap;html=1;fillColor=#B3FF66;" parent="RPVrYkw0YZt2wrHHsJ2X-19" vertex="1">
          <mxGeometry x="71" y="564" width="120" height="60" as="geometry" />
        </mxCell>
        <mxCell id="RPVrYkw0YZt2wrHHsJ2X-22" value="&lt;font style=&quot;font-size: 18px;&quot;&gt;Exam&lt;/font&gt;&lt;br style=&quot;border-color: var(--border-color);&quot;&gt;（考试服务）" style="rounded=1;whiteSpace=wrap;html=1;fillColor=#FF00FF;" parent="RPVrYkw0YZt2wrHHsJ2X-19" vertex="1">
          <mxGeometry x="71" y="163" width="120" height="60" as="geometry" />
        </mxCell>
        <mxCell id="RPVrYkw0YZt2wrHHsJ2X-23" value="&lt;span style=&quot;font-size: 18px;&quot;&gt;Kc&lt;/span&gt;&lt;br&gt;（课程服务）" style="rounded=1;whiteSpace=wrap;html=1;fillColor=#FF8000;" parent="RPVrYkw0YZt2wrHHsJ2X-19" vertex="1">
          <mxGeometry x="71" y="259" width="120" height="60" as="geometry" />
        </mxCell>
        <mxCell id="RPVrYkw0YZt2wrHHsJ2X-45" value="192.168.1.99" style="swimlane;whiteSpace=wrap;html=1;" parent="1" vertex="1">
          <mxGeometry x="605" y="201" width="239" height="110" as="geometry" />
        </mxCell>
        <mxCell id="RPVrYkw0YZt2wrHHsJ2X-46" value="&lt;font style=&quot;font-size: 18px;&quot;&gt;Nginx&lt;/font&gt;" style="rounded=1;whiteSpace=wrap;html=1;fillColor=#FFFFFF;" parent="RPVrYkw0YZt2wrHHsJ2X-45" vertex="1">
          <mxGeometry x="59.5" y="34" width="120" height="60" as="geometry" />
        </mxCell>
        <mxCell id="RPVrYkw0YZt2wrHHsJ2X-47" value="" style="endArrow=classic;html=1;rounded=0;exitX=0.5;exitY=1;exitDx=0;exitDy=0;entryX=0.5;entryY=0;entryDx=0;entryDy=0;" parent="1" source="RPVrYkw0YZt2wrHHsJ2X-46" target="RPVrYkw0YZt2wrHHsJ2X-15" edge="1">
          <mxGeometry width="50" height="50" relative="1" as="geometry">
            <mxPoint x="794" y="342" as="sourcePoint" />
            <mxPoint x="844" y="292" as="targetPoint" />
          </mxGeometry>
        </mxCell>
        <mxCell id="RPVrYkw0YZt2wrHHsJ2X-48" value="" style="endArrow=classic;html=1;rounded=0;exitX=0.75;exitY=1;exitDx=0;exitDy=0;entryX=0.5;entryY=0;entryDx=0;entryDy=0;" parent="1" source="RPVrYkw0YZt2wrHHsJ2X-46" target="RPVrYkw0YZt2wrHHsJ2X-21" edge="1">
          <mxGeometry width="50" height="50" relative="1" as="geometry">
            <mxPoint x="804" y="352" as="sourcePoint" />
            <mxPoint x="854" y="302" as="targetPoint" />
          </mxGeometry>
        </mxCell>
        <mxCell id="RPVrYkw0YZt2wrHHsJ2X-49" value="" style="endArrow=classic;html=1;rounded=0;exitX=0.25;exitY=1;exitDx=0;exitDy=0;" parent="1" source="RPVrYkw0YZt2wrHHsJ2X-46" edge="1">
          <mxGeometry width="50" height="50" relative="1" as="geometry">
            <mxPoint x="814" y="362" as="sourcePoint" />
            <mxPoint x="417" y="413" as="targetPoint" />
          </mxGeometry>
        </mxCell>
        <mxCell id="RPVrYkw0YZt2wrHHsJ2X-52" style="edgeStyle=orthogonalEdgeStyle;rounded=0;orthogonalLoop=1;jettySize=auto;html=1;exitX=0.5;exitY=1;exitDx=0;exitDy=0;" parent="1" source="RPVrYkw0YZt2wrHHsJ2X-51" target="RPVrYkw0YZt2wrHHsJ2X-46" edge="1">
          <mxGeometry relative="1" as="geometry" />
        </mxCell>
        <mxCell id="RPVrYkw0YZt2wrHHsJ2X-51" value="&lt;span style=&quot;font-size: 18px;&quot;&gt;客户&lt;br&gt;&lt;/span&gt;" style="rounded=1;whiteSpace=wrap;html=1;fillColor=#FFFFFF;" parent="1" vertex="1">
          <mxGeometry x="664.5" y="66" width="120" height="60" as="geometry" />
        </mxCell>
      </root>
    </mxGraphModel>
  </diagram>
</mxfile>
